<mxfile host="app.diagrams.net" modified="2021-04-24T02:58:19.174Z" agent="5.0 (Windows NT 10.0; Win64; x64) AppleWebKit/537.36 (KHTML, like Gecko) Chrome/90.0.4430.85 Safari/537.36" etag="7H3DxgJmCCYg6-WLlUwb" version="14.6.5" type="github">
  <diagram id="6VvRcCptmf12EEjGauK9" name="第 1 页">
    <mxGraphModel dx="1466" dy="738" grid="1" gridSize="10" guides="1" tooltips="1" connect="1" arrows="1" fold="1" page="1" pageScale="1" pageWidth="827" pageHeight="1169" math="0" shadow="0">
      <root>
        <mxCell id="0" />
        <mxCell id="1" parent="0" />
        <mxCell id="2Ptei0GXKIDCq8hqDce8-11" style="edgeStyle=orthogonalEdgeStyle;rounded=0;orthogonalLoop=1;jettySize=auto;html=1;exitX=1;exitY=0.5;exitDx=0;exitDy=0;entryX=0;entryY=0.5;entryDx=0;entryDy=0;" edge="1" parent="1" source="2Ptei0GXKIDCq8hqDce8-6" target="2Ptei0GXKIDCq8hqDce8-7">
          <mxGeometry relative="1" as="geometry" />
        </mxCell>
        <mxCell id="2Ptei0GXKIDCq8hqDce8-6" value="传感器" style="rounded=0;whiteSpace=wrap;html=1;fillColor=#dae8fc;strokeColor=#6c8ebf;" vertex="1" parent="1">
          <mxGeometry x="50" y="270" width="120" height="60" as="geometry" />
        </mxCell>
        <mxCell id="2Ptei0GXKIDCq8hqDce8-14" style="edgeStyle=orthogonalEdgeStyle;rounded=0;orthogonalLoop=1;jettySize=auto;html=1;exitX=1;exitY=0.5;exitDx=0;exitDy=0;entryX=0;entryY=0.5;entryDx=0;entryDy=0;" edge="1" parent="1" source="2Ptei0GXKIDCq8hqDce8-7" target="2Ptei0GXKIDCq8hqDce8-8">
          <mxGeometry relative="1" as="geometry" />
        </mxCell>
        <mxCell id="2Ptei0GXKIDCq8hqDce8-7" value="esp8266单片机" style="rounded=0;whiteSpace=wrap;html=1;fillColor=#dae8fc;strokeColor=#6c8ebf;" vertex="1" parent="1">
          <mxGeometry x="280" y="270" width="120" height="60" as="geometry" />
        </mxCell>
        <mxCell id="2Ptei0GXKIDCq8hqDce8-19" style="edgeStyle=orthogonalEdgeStyle;rounded=0;orthogonalLoop=1;jettySize=auto;html=1;exitX=0.75;exitY=0;exitDx=0;exitDy=0;entryX=0.75;entryY=1;entryDx=0;entryDy=0;" edge="1" parent="1" source="2Ptei0GXKIDCq8hqDce8-8" target="2Ptei0GXKIDCq8hqDce8-9">
          <mxGeometry relative="1" as="geometry" />
        </mxCell>
        <mxCell id="2Ptei0GXKIDCq8hqDce8-8" value="mqtt服务器" style="rounded=0;whiteSpace=wrap;html=1;fillColor=#f8cecc;strokeColor=#b85450;" vertex="1" parent="1">
          <mxGeometry x="500" y="270" width="120" height="60" as="geometry" />
        </mxCell>
        <mxCell id="2Ptei0GXKIDCq8hqDce8-17" style="edgeStyle=orthogonalEdgeStyle;rounded=0;orthogonalLoop=1;jettySize=auto;html=1;exitX=0.25;exitY=1;exitDx=0;exitDy=0;entryX=0.25;entryY=0;entryDx=0;entryDy=0;" edge="1" parent="1" source="2Ptei0GXKIDCq8hqDce8-9" target="2Ptei0GXKIDCq8hqDce8-8">
          <mxGeometry relative="1" as="geometry" />
        </mxCell>
        <mxCell id="2Ptei0GXKIDCq8hqDce8-22" style="edgeStyle=orthogonalEdgeStyle;rounded=0;orthogonalLoop=1;jettySize=auto;html=1;exitX=0;exitY=0.25;exitDx=0;exitDy=0;entryX=1;entryY=0.25;entryDx=0;entryDy=0;" edge="1" parent="1" source="2Ptei0GXKIDCq8hqDce8-9" target="2Ptei0GXKIDCq8hqDce8-10">
          <mxGeometry relative="1" as="geometry" />
        </mxCell>
        <mxCell id="2Ptei0GXKIDCq8hqDce8-9" value="微信小程序" style="rounded=0;whiteSpace=wrap;html=1;fillColor=#fff2cc;strokeColor=#d6b656;" vertex="1" parent="1">
          <mxGeometry x="500" y="130" width="120" height="60" as="geometry" />
        </mxCell>
        <mxCell id="2Ptei0GXKIDCq8hqDce8-24" style="edgeStyle=orthogonalEdgeStyle;rounded=0;orthogonalLoop=1;jettySize=auto;html=1;exitX=1;exitY=0.75;exitDx=0;exitDy=0;entryX=0;entryY=0.75;entryDx=0;entryDy=0;" edge="1" parent="1" source="2Ptei0GXKIDCq8hqDce8-10" target="2Ptei0GXKIDCq8hqDce8-9">
          <mxGeometry relative="1" as="geometry" />
        </mxCell>
        <mxCell id="2Ptei0GXKIDCq8hqDce8-10" value="阿里云服务器" style="rounded=0;whiteSpace=wrap;html=1;fillColor=#f8cecc;strokeColor=#b85450;" vertex="1" parent="1">
          <mxGeometry x="280" y="130" width="120" height="60" as="geometry" />
        </mxCell>
        <mxCell id="2Ptei0GXKIDCq8hqDce8-12" value="传输数据" style="text;html=1;align=center;verticalAlign=middle;resizable=0;points=[];autosize=1;strokeColor=none;" vertex="1" parent="1">
          <mxGeometry x="190" y="270" width="60" height="20" as="geometry" />
        </mxCell>
        <mxCell id="2Ptei0GXKIDCq8hqDce8-15" value="连接服务器&lt;br&gt;传输数据" style="text;html=1;align=center;verticalAlign=middle;resizable=0;points=[];autosize=1;strokeColor=none;" vertex="1" parent="1">
          <mxGeometry x="410" y="255" width="80" height="30" as="geometry" />
        </mxCell>
        <mxCell id="2Ptei0GXKIDCq8hqDce8-18" value="发送&lt;br&gt;请求" style="text;html=1;align=center;verticalAlign=middle;resizable=0;points=[];autosize=1;strokeColor=none;" vertex="1" parent="1">
          <mxGeometry x="490" y="215" width="40" height="30" as="geometry" />
        </mxCell>
        <mxCell id="2Ptei0GXKIDCq8hqDce8-20" value="传输&lt;br&gt;数据" style="text;html=1;align=center;verticalAlign=middle;resizable=0;points=[];autosize=1;strokeColor=none;" vertex="1" parent="1">
          <mxGeometry x="590" y="215" width="40" height="30" as="geometry" />
        </mxCell>
        <mxCell id="2Ptei0GXKIDCq8hqDce8-23" value="发送请求" style="text;html=1;align=center;verticalAlign=middle;resizable=0;points=[];autosize=1;strokeColor=none;" vertex="1" parent="1">
          <mxGeometry x="420" y="120" width="60" height="20" as="geometry" />
        </mxCell>
        <mxCell id="2Ptei0GXKIDCq8hqDce8-25" value="返回响应" style="text;html=1;align=center;verticalAlign=middle;resizable=0;points=[];autosize=1;strokeColor=none;" vertex="1" parent="1">
          <mxGeometry x="410" y="180" width="60" height="20" as="geometry" />
        </mxCell>
        <mxCell id="2Ptei0GXKIDCq8hqDce8-30" style="edgeStyle=orthogonalEdgeStyle;rounded=0;orthogonalLoop=1;jettySize=auto;html=1;exitX=0.5;exitY=1;exitDx=0;exitDy=0;" edge="1" parent="1" source="2Ptei0GXKIDCq8hqDce8-26" target="2Ptei0GXKIDCq8hqDce8-6">
          <mxGeometry relative="1" as="geometry" />
        </mxCell>
        <mxCell id="2Ptei0GXKIDCq8hqDce8-26" value="盆栽" style="ellipse;whiteSpace=wrap;html=1;fillColor=#d5e8d4;strokeColor=#82b366;" vertex="1" parent="1">
          <mxGeometry x="60" y="130" width="100" height="70" as="geometry" />
        </mxCell>
        <mxCell id="2Ptei0GXKIDCq8hqDce8-29" value="获取&lt;br&gt;信息" style="text;html=1;align=center;verticalAlign=middle;resizable=0;points=[];autosize=1;strokeColor=none;" vertex="1" parent="1">
          <mxGeometry x="70" y="215" width="40" height="30" as="geometry" />
        </mxCell>
      </root>
    </mxGraphModel>
  </diagram>
</mxfile>
